<?xml version="1.0" encoding="utf-8"?>
<!-- Generator: Adobe Illustrator 24.3.0, SVG Export Plug-In . SVG Version: 6.00 Build 0)  -->
<svg version="1.1" id="圖層_1" xmlns="http://www.w3.org/2000/svg" xmlns:xlink="http://www.w3.org/1999/xlink" x="0px" y="0px"
	 viewBox="0 0 44 49" style="enable-background:new 0 0 44 49;" xml:space="preserve">
<style type="text/css">
	.st0{clip-path:url(#SVGID_2_);}
	.st1{fill:#0156A2;}
</style>
<g>
	<defs>
		<rect id="SVGID_1_" width="44" height="49"/>
	</defs>
	<clipPath id="SVGID_2_">
		<use xlink:href="#SVGID_1_"  style="overflow:visible;"/>
	</clipPath>
	<g class="st0">
		<path class="st1" d="M39.8,3.6h-2.5v1.3v2.2c0,1.8-1.4,3.2-3.2,3.2h-0.2c-1.8,0-3.2-1.4-3.2-3.2V4.9V3.6H13.4v1.3v2.2
			c0,1.8-1.4,3.2-3.2,3.2H10c-1.8,0-3.2-1.4-3.2-3.2V4.9V3.6H4.2C1.9,3.6,0,5.5,0,7.8v37C0,47.1,1.9,49,4.2,49h30.1
			c0.5,0,1-0.2,1.3-0.6l7.9-8.6c0.3-0.3,0.5-0.8,0.5-1.2V7.8C44,5.5,42.1,3.6,39.8,3.6z M41.4,36.9h-4.6c-2.3,0-4.2,1.9-4.2,4.2v5.3
			H4.2c-0.9,0-1.6-0.7-1.6-1.6V14.9h38.8C41.4,14.9,41.4,36.9,41.4,36.9z"/>
		<path class="st1" d="M10,8.9h0.2c1,0,1.8-0.8,1.8-1.8V1.8c0-1-0.8-1.8-1.8-1.8H10C9,0,8.2,0.8,8.2,1.8v5.3C8.2,8.1,9,8.9,10,8.9z"
			/>
		<path class="st1" d="M33.9,8.9h0.2c1,0,1.8-0.8,1.8-1.8V1.8c0-1-0.8-1.8-1.8-1.8h-0.2c-1,0-1.8,0.8-1.8,1.8v5.3
			C32.1,8.1,32.9,8.9,33.9,8.9z"/>
		<path class="st1" d="M27.6,26.7c1.4,3.4,3.5,6.7,5.9,8.6c-0.7,0.5-1.7,1.5-2.2,2.3c-1.9-1.8-3.6-4.6-5-7.6v10.4h-2.9v-9.9
			c-1.4,2.9-3.2,5.4-5.2,7.2c-0.5-0.6-1.3-1.5-2-2.1v4.8h-2.9V28.2c-0.7,0.8-1.3,1.5-2,2.1c-0.3-0.7-1.2-2.3-1.7-3
			c2.5-2.2,4.9-5.6,6.2-9.1l2.9,0.9c-0.7,1.7-1.6,3.4-2.5,5v11.1c2.4-1.9,4.7-5.2,6.1-8.6h-5.1v-2.8h6.3v-5.4h2.9v5.4h6.4v2.8H27.6z
			"/>
	</g>
</g>
</svg>
