<svg width="24" height="24" viewBox="0 0 24 24" fill="none" xmlns="http://www.w3.org/2000/svg">
<path d="M23.8708 11.4368L22.7835 9.90385C23.0801 9.65659 23.3272 9.43407 23.4754 9.26099C23.7719 8.96429 23.7719 8.49451 23.4754 8.22253C23.1789 7.92582 22.7094 7.92582 22.4376 8.22253C21.5233 9.13736 18.1134 12.0797 12.5289 12.0797C6.94448 12.0797 3.53451 9.11264 2.62024 8.22253C2.32372 7.92582 1.85423 7.92582 1.58242 8.22253C1.28591 8.51923 1.28591 8.98901 1.58242 9.26099C1.73068 9.40934 1.95307 9.63187 2.24959 9.87912L1.13765 11.4368C0.890546 11.783 0.989386 12.228 1.31062 12.4753C1.43416 12.5742 1.58242 12.6236 1.73068 12.6236C1.95307 12.6236 2.20017 12.5247 2.34843 12.3022L3.43567 10.794C3.92987 11.1401 4.52291 11.511 5.21478 11.8571L4.17697 13.8599C3.97929 14.2308 4.12755 14.6758 4.4982 14.8489C4.59703 14.8984 4.72058 14.9231 4.84413 14.9231C5.11594 14.9231 5.36304 14.7747 5.5113 14.5275L6.57383 12.4505C7.16687 12.6978 7.80933 12.8956 8.52591 13.0687L7.88346 15.4423C7.78462 15.8379 8.007 16.2335 8.40236 16.3571C8.47649 16.3819 8.52591 16.3819 8.60004 16.3819C8.92127 16.3819 9.21779 16.1593 9.31663 15.8379L9.9838 13.3654C10.5521 13.4643 11.1699 13.5137 11.7876 13.5385V16.2582C11.7876 16.6538 12.1089 17 12.5289 17C12.949 17 13.2702 16.6538 13.2702 16.2582V13.5385C13.888 13.5137 14.5057 13.4396 15.074 13.3654L15.7412 15.8379C15.8401 16.1593 16.1366 16.3819 16.4578 16.3819C16.5319 16.3819 16.5813 16.3819 16.6555 16.3571C17.0508 16.2582 17.2732 15.8379 17.1744 15.4423L16.5319 13.0687C17.2238 12.8956 17.891 12.6731 18.484 12.4505L19.5218 14.5027C19.6454 14.75 19.9172 14.8984 20.189 14.8984C20.3125 14.8984 20.4114 14.8736 20.5349 14.8242C20.9056 14.6264 21.0538 14.1813 20.8562 13.8352L19.8431 11.8571C20.5349 11.511 21.128 11.1648 21.6222 10.8187L22.6847 12.3022C22.833 12.5 23.0554 12.6236 23.2777 12.6236C23.426 12.6236 23.5743 12.5742 23.6978 12.4753C24.019 12.228 24.0932 11.7582 23.8708 11.4368Z" fill="#0156A2"/>
</svg>
