<svg width="24" height="24" viewBox="0 0 24 24" fill="none" xmlns="http://www.w3.org/2000/svg">
<path d="M12.0001 20.5716C16.734 20.5716 20.5716 16.734 20.5716 12.0001C20.5716 7.26627 16.734 3.42871 12.0001 3.42871C7.26627 3.42871 3.42871 7.26627 3.42871 12.0001C3.42871 16.734 7.26627 20.5716 12.0001 20.5716Z" stroke="white" stroke-width="2" stroke-linecap="round" stroke-linejoin="round"/>
<path d="M9.50586 9.42857C9.70738 8.85572 10.1051 8.37266 10.6287 8.06497C11.1522 7.75728 11.7678 7.6448 12.3663 7.74747C12.9648 7.85013 13.5077 8.16131 13.8988 8.62588C14.2899 9.09046 14.5039 9.67845 14.503 10.2857C14.503 12 11.9316 12.8571 11.9316 12.8571" stroke="white" stroke-width="2" stroke-linecap="round" stroke-linejoin="round"/>
<ellipse cx="12.0002" cy="16.2859" rx="0.857143" ry="0.857142" fill="#EDF2F5"/>
</svg>
