<svg width="24" height="24" viewBox="0 0 24 24" fill="none" xmlns="http://www.w3.org/2000/svg">
<path d="M12.0001 20.5714C16.734 20.5714 20.5716 16.7339 20.5716 12C20.5716 7.26615 16.734 3.42859 12.0001 3.42859C7.26627 3.42859 3.42871 7.26615 3.42871 12C3.42871 16.7339 7.26627 20.5714 12.0001 20.5714Z" stroke="#0156A2" stroke-width="2" stroke-linecap="round" stroke-linejoin="round"/>
<path d="M9.50586 9.42869C9.70738 8.85584 10.1051 8.37278 10.6287 8.06509C11.1522 7.7574 11.7678 7.64493 12.3663 7.74759C12.9648 7.85025 13.5077 8.16143 13.8988 8.626C14.2899 9.09058 14.5039 9.67857 14.503 10.2858C14.503 12.0001 11.9316 12.8573 11.9316 12.8573" stroke="#0156A2" stroke-width="2" stroke-linecap="round" stroke-linejoin="round"/>
<ellipse cx="11.9997" cy="16.2857" rx="0.857143" ry="0.857142" fill="#0156A2"/>
</svg>
