<svg id="圖層_1" data-name="圖層 1" xmlns="http://www.w3.org/2000/svg" viewBox="0 0 554.55 141.44"><path d="M220.4,79.25c.11-1.29.23-2.92.23-2.92l-3.34-1.12s-5.48,13.6-9.22,20.62c-.37.61-.64,1.08-.85,1.49a17.1,17.1,0,0,0-1.27,2.86,6.89,6.89,0,0,0,.2,4.34,6.13,6.13,0,0,0,1.76,2.19,5.27,5.27,0,0,0,3.23,1.16,3.2,3.2,0,0,0,.44,0,4.39,4.39,0,0,0,2.68-1.26c1.67-1.41,2.81-4,3.85-9.44A176.93,176.93,0,0,0,220.4,79.25Z" transform="translate(-17.79 -19.4)" style="fill:#fff"/><path d="M466.17,40.66H453l.1,49-25.81.22v4.7l25.82-.33,0,17h6.49c1.39,0,3.68.08,4.55-.29,1.43-.61,2-2.12,2-3.75V94.09l6.09-.08a2.84,2.84,0,0,0,2.8-2.84V89.48l-8.89.07Z" transform="translate(-17.79 -19.4)" style="fill:#fff"/><path d="M345,52.61c.4,1.12.71,2.28,1.06,3.63.28,1,.59,2.24,1,3.59a4.3,4.3,0,0,0,2.71,3.06,2.38,2.38,0,0,0,.37.06h.1a3.4,3.4,0,0,0,2.32-.69,4,4,0,0,0,1.07-4.47c-.82-2.13-3.46-5-5.29-7h0l-.1-.08h0l-.08-.09h0l-.1-.09-3.11,1.93Z" transform="translate(-17.79 -19.4)" style="fill:#fff"/><path d="M340.39,42.7V41.3h-9.94v70h7.14a2.83,2.83,0,0,0,2.83-2.83V81.25h4.12v7.54c0,9.93-.3,11.2,7.82,11.51,1.13,0,3.72.09,4.46.09.9,0,3.82-.09,5.77-.3a10.07,10.07,0,0,0,3.1-.67c1.64-.75.31-4.61.27-4.75l0-.11a37.52,37.52,0,0,1-4.42.4c-2.91.13-3.78.13-5.89.07s-2.32-1-2.32-5.14V81.25h15.37v30h7.42a2.83,2.83,0,0,0,2.83-2.83l.07-65.7H340.39Zm28.27,25.39v8.73h-9.54V68.09Zm-18.75,8.73h-9.5V68.09h9.5Zm18.75-13h-8.82a93.47,93.47,0,0,0,4.62-8.44,2.86,2.86,0,0,0-1.67-3.92l-3.58-1.16,0,.18a129.53,129.53,0,0,1-4.45,13.34h-14.3V47.28h28.26Z" transform="translate(-17.79 -19.4)" style="fill:#fff"/><path d="M224.55,84.06a51.23,51.23,0,0,0,12.51-8.51,41.58,41.58,0,0,0,6-6.39,24.66,24.66,0,0,0,2.7-4.29h10.19v1.94c0,9.57.73,10.27,11.18,10.59l3.26,0c1.67,0,2.54,0,3.94-.09a34.88,34.88,0,0,0,6.6-.64c2.41-.62.84-5.2.77-5.4l-.07-.21-.42.08c-1.55.23-3.4.5-5.29.63a40,40,0,0,1-5.91.12c-2.32-.14-2.49-.57-2.49-4.18V64.87h11.73A2.83,2.83,0,0,0,282.05,62V60.35h-23.2V54.26h20.37a2.83,2.83,0,0,0,2.83-2.83V49.74h-23.2v-9H245.44v9H223.92v4.52h21.52v6.09H223.92v4.52h10.92c-1.36,3.63-5.94,10.77-12,16.7l-.18.14,1.68,2.45ZM235,64.87h0Z" transform="translate(-17.79 -19.4)" style="fill:#fff"/><path d="M438.42,74.29h0c1.23,2,2.62,4.35,4.26,6.8a4.08,4.08,0,0,0,3.21,2.08h.1a4.58,4.58,0,0,0,3.49-1.8,4.4,4.4,0,0,0-.36-5.42,16.44,16.44,0,0,0-3-2.87A.76.76,0,0,0,446,73c-1.25-1-7.12-5.43-7.12-5.43l-1.06.76h0l-2.15,1.59.11.16C436.56,71.21,437.42,72.64,438.42,74.29Z" transform="translate(-17.79 -19.4)" style="fill:#fff"/><path d="M438.36,55.05h0c1.15,2.05,2.46,4.37,4,6.83A4,4,0,0,0,445.47,64h.1a4.56,4.56,0,0,0,3.51-1.67,4.37,4.37,0,0,0-.19-5.37A16,16,0,0,0,446,54.07l-.09-.09c-1.2-1-7-5.44-7-5.44l-.9.61h0l-2.17,1.52.1.16C436.62,52,437.43,53.39,438.36,55.05Z" transform="translate(-17.79 -19.4)" style="fill:#fff"/><path d="M425.82,78.33c1,1.15,2.05,2.39,3.38,3.83a4.72,4.72,0,0,0,3.91,1.76h0a2,2,0,0,0,.62-.19c2.32-.81,3.56-4.27,2.74-6.2-1.9-4.5-9.57-8.26-13.42-9.91V64.47h8.11A2.83,2.83,0,0,0,434,61.64V60H423.06l0-9.93c2-.57,3.93-1.21,5.51-1.78a.52.52,0,0,0,.13-.06l.1,0h0a2.83,2.83,0,0,0,.92-4.46l-.11-.12c-1.2-1.33-2.81-3.27-2.81-3.27l-.07-.06-.21.1c-7.16,3.37-19.14,6.88-28.79,8.37l-.29.07.8,3.26h0l.32,1.49a115.53,115.53,0,0,0,11.83-1V60H395.54v4.52H406c-1.14,8.61-8.09,26.26-11.74,31.84l-.11.15L397.91,99l.21-.15c3.52-4.38,10.71-16.38,12.28-21l0,33.37H416c3.24,0,4.12,0,5.24-.69a3.88,3.88,0,0,0,1.8-3.5V75.56C423.63,76.09,424.63,77.05,425.82,78.33Z" transform="translate(-17.79 -19.4)" style="fill:#fff"/><path d="M302.08,84.23c-.21,1.21-.42,2.44-.63,3.68-1,6-2.08,12.26-3.32,17.73l0,.1L301.8,107l.08-.12c1.92-3.66,5.49-13.36,6.49-16.24s1.37-4,1.37-4l-7.63-2.51Z" transform="translate(-17.79 -19.4)" style="fill:#fff"/><path d="M323,85.46l-.11-.13-3,1.13L320,87c.3,2.88.79,7.71,1.56,11.61.35,1.84,1.27,3,2.59,3.38a7.25,7.25,0,0,0,1.23.15,3.43,3.43,0,0,0,2-.68,5,5,0,0,0,1.31-6.28A49,49,0,0,0,323,85.46Z" transform="translate(-17.79 -19.4)" style="fill:#fff"/><path d="M321.17,65.87l-.07-.06-.52-.5c1.25-1.56,2.43-3.06,3.49-4.44,1.26-1.57,2.5-3.16,3.66-4.71A2.91,2.91,0,0,0,327,52l-.63-.41a2.83,2.83,0,0,0-.28-.2l-4.29-2.75s-3.2,5-7.52,11c-1.48-1.09-3-2.12-4.43-3.06,1.81-2.07,4.57-5.35,7.48-9.25a2.86,2.86,0,0,0-.78-4.15l-.27-.16-4.75-2.83-.1.27a63,63,0,0,1-8,12.22l-1.72-1-1.86,3.86a117.93,117.93,0,0,1,10.47,9.39c-2.19,2.85-4.48,5.68-6.7,8.13-1.28,1.37-2.44,2.56-3.44,3.51h-1.1v4.26h11.19l0,30.42h6.29a2.82,2.82,0,0,0,2.81-2.83V80.84h3.43a3.84,3.84,0,0,0,2.62,1.64,5.63,5.63,0,0,0,3.56-.91c1.05-.94,1.75-2.89.56-5.53S324.28,68.57,321.17,65.87Zm-7.94,7.94c1.24-1.27,2.49-2.66,3.72-4.1a32.34,32.34,0,0,1,4.38,6.87H310.8C311.4,75.9,312.24,75,313.23,73.81Z" transform="translate(-17.79 -19.4)" style="fill:#fff"/><path d="M267.75,100.76l-.1-.12a50.42,50.42,0,0,1-7.7-3.08c1.37-.88,2.75-1.82,4.18-2.85a76.09,76.09,0,0,0,8.51-6.91l.49-.48,0,0a18.92,18.92,0,0,0,2.17-2.43,2.65,2.65,0,0,0-2.14-4.2h-22.7a31.26,31.26,0,0,0,2.41-2.94l0-.06A2.33,2.33,0,0,0,251,74h-8.36c-4.78,7.67-12.87,17.54-20.62,23.74l.47.68.58.85.58.85L224,100c.43-.19.88-.4,1.34-.63A91.26,91.26,0,0,0,240,90.69a83,83,0,0,0,6.66,6.43l-.08.06c-.21.14-.43.29-.6.42-4.77,3.4-14,8-27.67,11.52l-.26.07.85,2.25.25,0a97.08,97.08,0,0,0,21.13-4.29l.37-.12h.07a60.34,60.34,0,0,0,9.76-4.1c.3-.14.58-.29.87-.44l.15-.07.1,0,1-.51a60.66,60.66,0,0,0,13.25,7.32c2.43,1,4,1.48,4,1.48h0c.25.08.48.18.74.26,3.22,1,5.48,1.07,7.14.12a88.08,88.08,0,0,0,8.94-6.51s-1.93-.21-2.93-.4C278.46,103.09,273,102.19,267.75,100.76ZM260.6,84.83c-.09.14-.21.28-.32.42a70.11,70.11,0,0,1-6.52,6.31L252.06,93a53.27,53.27,0,0,1-4.8-3.76,30.9,30.9,0,0,1-2.36-2.45h0a2.09,2.09,0,0,0,.22-.2c.68-.63,1.24-1.2,1.7-1.7Z" transform="translate(-17.79 -19.4)" style="fill:#fff"/><path d="M572.33,106a82.11,82.11,0,0,1-22.94-9.11c5.42-4.81,12.33-12,15.49-18.32,0-.07.06-.13.09-.19s.1-.21.16-.32l0-.06s0-.11.05-.16a2.63,2.63,0,0,0-2.39-3.75H549.54V61.46h13.59A2.83,2.83,0,0,0,566,58.63V56.94H549.54V40.79H536.29V56.94H524.37v4.52h11.92V74.09h-12v0h-.16l-.09-.09h0l-.42-.39c-.86-.84-1.72-1.72-1.72-1.72-2.61,1.2-5.72,2.56-9,3.95V61.46h6.74a2.83,2.83,0,0,0,2.84-2.83V56.94h-9.58V40.73H500V56.94H489.18v4.52H500V81.21c-7.31,3-13.13,5.22-13.13,5.22a13.47,13.47,0,0,0,1.23,1.28l1,1,1.5,1.51c2.63,2.12,3.39,2,4.83,1.38h0s1.77-.83,4.61-2.25V104.7a.46.46,0,0,1,0,.14v6.42h8.42a4.86,4.86,0,0,0,3-1.27h0l.17-.18h0a4,4,0,0,0,.52-.63h0l.1-.14h0a5.12,5.12,0,0,0,.71-2.68V82.48c2.1-1.17,4.26-2.42,6.43-3.72h0l.07,0c1.54-.92,3.08-1.87,4.59-2.84.37,1.39.93,3,.93,3a60.3,60.3,0,0,0,12,18.16c-2.38,1.92-4.41,3.33-5.53,4.07a113.82,113.82,0,0,1-11.94,6.37q-1.5.58-3,1.11l-.39.13-.09.1a5.85,5.85,0,0,1-.59.15l.2.42,0,.07.57,1.24h0l.22.46a71.1,71.1,0,0,0,17.55-4.63c.75-.3,1.5-.65,2.24-1a53.13,53.13,0,0,0,6.45-3.31,62.17,62.17,0,0,0,15,8.52c3.72,1.35,6.26.37,10.41-2l4.34-2.67h0ZM551.67,78.61c-1.86,5-5.47,9.63-9.21,13.38-7-5.84-9.63-11.34-10.43-13.38Z" transform="translate(-17.79 -19.4)" style="fill:#fff"/><path d="M207.36,48.35s1.69,4.71,2.43,7,1.31,6.29,2.93,9.39c1.22,2.32,2.7,2.72,3.65,2.8h.11a5,5,0,0,0,3.91-1.87c1.47-2,1.71-5.66-.07-9.16a12.31,12.31,0,0,0-1.6-2.43l0,0,0,0h0a89.92,89.92,0,0,0-8-8.28l-1.78,1.29-1.61,1.11Z" transform="translate(-17.79 -19.4)" style="fill:#fff"/><polygon points="391.94 106.27 387.79 106.27 387.79 117.56 387.78 117.56 387.78 119.39 387.79 119.39 387.79 119.39 391.94 119.39 391.94 119.39 400.06 119.39 400.06 117.56 391.94 117.56 391.94 106.27" style="fill:#fff"/><polygon points="200.15 111.52 193.35 111.52 193.35 106.27 189.58 106.27 189.58 119.39 193.35 119.39 193.35 113.34 200.15 113.34 200.15 119.39 203.91 119.39 203.91 106.27 200.15 106.27 200.15 111.52" style="fill:#fff"/><polygon points="342.43 111.52 335.62 111.52 335.62 106.27 331.86 106.27 331.86 119.39 335.62 119.39 335.62 113.34 342.43 113.34 342.43 119.39 346.19 119.39 346.19 106.27 342.43 106.27 342.43 111.52" style="fill:#fff"/><polygon points="214.61 111.94 210.41 106.41 206.26 106.41 211.6 113.59 211.6 119.39 215.75 119.39 215.75 113.31 220.25 106.38 220.3 106.3 218.27 106.3 214.61 111.94" style="fill:#fff"/><polygon points="446.45 111.94 442.25 106.41 438.1 106.41 443.44 113.59 443.44 119.39 447.58 119.39 447.58 113.31 452.09 106.38 452.14 106.3 450.11 106.3 446.45 111.94" style="fill:#fff"/><polygon points="236.94 114.58 234.31 106.3 233.54 106.3 233.55 106.26 231.57 106.26 229.36 114.48 226.41 106.3 222.45 106.3 227.14 119.31 228.07 119.31 228.05 119.36 230.03 119.36 232.21 111.24 234.77 119.31 234.96 119.31 234.94 119.36 236.93 119.36 236.95 119.31 236.97 119.31 237.02 119.14 242.35 106.33 242.38 106.26 240.4 106.26 236.94 114.58" style="fill:#fff"/><polygon points="248.78 106.55 245.7 106.55 245.7 119.67 249.85 119.67 249.85 119.66 256.87 119.66 256.87 117.84 249.85 117.84 249.85 113.62 256.76 113.62 256.76 111.8 249.85 111.8 249.85 108.38 256.87 108.38 256.87 106.55 248.78 106.55 248.78 106.55" style="fill:#fff"/><polygon points="281.03 108.05 286.05 108.05 286.05 119.39 290.2 119.39 290.2 108.05 295.23 108.05 295.23 106.23 281.03 106.23 281.03 108.05" style="fill:#fff"/><polygon points="520.69 108.05 525.72 108.05 525.72 119.39 529.87 119.39 529.87 108.05 534.89 108.05 534.89 106.23 520.69 106.23 520.69 108.05" style="fill:#fff"/><polygon points="361.66 114.93 353.2 106.41 353.2 106.34 350.95 106.34 350.95 119.44 353.2 119.44 353.2 110.73 361.66 119.31 361.66 119.44 363.91 119.44 363.91 106.34 361.66 106.34 361.66 114.93" style="fill:#fff"/><polygon points="511.91 106.27 507.76 106.27 507.76 117.56 507.76 117.56 507.76 119.39 507.76 119.39 507.76 119.39 511.91 119.39 511.91 119.39 520.04 119.39 520.04 117.56 511.91 117.56 511.91 106.27" style="fill:#fff"/><polygon points="301.96 106.55 298.88 106.55 298.88 119.67 303.03 119.67 303.03 119.66 310.05 119.66 310.05 117.84 303.03 117.84 303.03 113.62 309.94 113.62 309.94 111.8 303.03 111.8 303.03 108.38 310.05 108.38 310.05 106.55 301.96 106.55 301.96 106.55" style="fill:#fff"/><path d="M393.58,125.59c-4.64,0-8.28,2.9-8.28,6.6s3.64,6.6,8.28,6.6,8.28-2.9,8.28-6.6S398.22,125.59,393.58,125.59Zm4.51,6.6a4.54,4.54,0,1,1-4.51-5A4.78,4.78,0,0,1,398.09,132.19Z" transform="translate(-17.79 -19.4)" style="fill:#fff"/><path d="M501.69,125.59c-4.65,0-8.28,2.9-8.28,6.6s3.63,6.6,8.28,6.6,8.28-2.9,8.28-6.6S506.33,125.59,501.69,125.59Zm4.51,6.6a4.54,4.54,0,1,1-4.51-5A4.78,4.78,0,0,1,506.2,132.19Z" transform="translate(-17.79 -19.4)" style="fill:#fff"/><path d="M427.6,125.59c-4.65,0-8.28,2.9-8.28,6.6s3.63,6.6,8.28,6.6,8.28-2.9,8.28-6.6S432.24,125.59,427.6,125.59Zm4.51,6.6a4.54,4.54,0,1,1-4.51-5A4.78,4.78,0,0,1,432.11,132.19Z" transform="translate(-17.79 -19.4)" style="fill:#fff"/><path d="M331.41,132.21c0,3.67,4.17,6.65,9.31,6.65a12.48,12.48,0,0,0,4.51-.83v-2.92a5.45,5.45,0,0,1-4.32,2.07,5,5,0,1,1,0-9.94,5.45,5.45,0,0,1,4.32,2.07V126.4a12.27,12.27,0,0,0-4.51-.83C335.58,125.57,331.41,128.54,331.41,132.21Z" transform="translate(-17.79 -19.4)" style="fill:#fff"/><path d="M476.69,132.21c0,3.67,4.17,6.65,9.31,6.65a12.43,12.43,0,0,0,4.5-.83v-2.92a5.42,5.42,0,0,1-4.31,2.07,5,5,0,1,1,0-9.94,5.42,5.42,0,0,1,4.31,2.07V126.4a12.22,12.22,0,0,0-4.5-.83C480.86,125.57,476.69,128.54,476.69,132.21Z" transform="translate(-17.79 -19.4)" style="fill:#fff"/><path d="M453.11,132.52h-2.87v4.19c.14-.05.27-.12.4-.18a6.93,6.93,0,0,0,.76-.41,5.75,5.75,0,0,1-1.16.59,5.6,5.6,0,0,1-1.89.33,5,5,0,1,1,0-9.93,5.34,5.34,0,0,1,4.76,2.77v-3.31a12,12,0,0,0-4.95-1c-5.14,0-9.31,3-9.31,6.65s4.17,6.64,9.31,6.64a12.58,12.58,0,0,0,2.16-.19,11.35,11.35,0,0,0,2.79-.84,6.37,6.37,0,0,0,.73-.39v-4.89h-.73Zm-1.69,3.58a5.16,5.16,0,0,0,.64-.49A6,6,0,0,1,451.42,136.1Zm.8-.66a4.27,4.27,0,0,0,.41-.44A4.27,4.27,0,0,1,452.22,135.44Z" transform="translate(-17.79 -19.4)" style="fill:#fff"/><path d="M288.44,131.75c1.57-.5,2.6-1.43,2.6-2.83,0-2.15-2.47-3.21-5.55-3.24h-6.1v11.18s0,.07,0,.1v1.83h6.1v0c3.37,0,6.09-1.23,6.09-3.7C291.58,133.39,290.31,132.29,288.44,131.75Zm-1.2-2.54c0,.9-.73,1.46-1.78,1.71a14.06,14.06,0,0,1-1.89.15v-3.72a14.36,14.36,0,0,1,1.91.15C286.52,127.75,287.24,128.31,287.24,129.21Zm-2,7.75a15,15,0,0,1-1.67.1v-4.45a14.35,14.35,0,0,1,1.89.14c1.25.28,2.12,1,2.12,2.09S286.6,136.72,285.24,137Z" transform="translate(-17.79 -19.4)" style="fill:#fff"/><path d="M562.67,125.68h-6.84V138.8h6.63c4.52,0,8.19-2.27,8.19-6.56S567.09,125.75,562.67,125.68Zm0,11.28a8.39,8.39,0,0,1-2.1.26,2.07,2.07,0,0,1-.57-.08v-9.8a2.07,2.07,0,0,1,.57-.08,8.45,8.45,0,0,1,2,.24,4.8,4.8,0,0,1,.06,9.46Z" transform="translate(-17.79 -19.4)" style="fill:#fff"/><path d="M512.77,136.16a1.29,1.29,0,0,0-.89.33,1.1,1.1,0,0,0-.39.85,1,1,0,0,0,.39.83,1.45,1.45,0,0,0,1.79,0,1,1,0,0,0,.39-.83,1.08,1.08,0,0,0-.39-.84A1.26,1.26,0,0,0,512.77,136.16Z" transform="translate(-17.79 -19.4)" style="fill:#fff"/><path d="M516.73,136.19a1.23,1.23,0,0,0-.88.33,1,1,0,0,0-.35.79,1,1,0,0,0,.36.77,1.52,1.52,0,0,0,.92.4c0,.5-.44.63-1.3,1l.4.62c1.63-.58,2.33-1.27,2.33-2.48a1.36,1.36,0,0,0-.44-1A1.45,1.45,0,0,0,516.73,136.19Z" transform="translate(-17.79 -19.4)" style="fill:#fff"/><path d="M76.92,121.88c7.1-7.18,43.29-43.69,43.31-43.71l2.17-2.29a6.8,6.8,0,0,0,1.46-3,7.34,7.34,0,0,0,.13-1.34,6.68,6.68,0,0,0-.78-3.15,7.08,7.08,0,0,0-2.78-2.78C119.34,65,118,64.34,118,64.34l-7.34-3.7L66.13,105.16A12.87,12.87,0,0,1,51,107.5h0c-.8-.36-2.14-1-4.6-2.26l-3.47-1.74-.48.48c-1,1.07-1.46,1.47-2.48,2.69a6.31,6.31,0,0,0-1.51,4.26,6.9,6.9,0,0,0,3.14,5.7c1.26.76,1.77,1.07,2.56,1.49l29.91,15,1.41-1.42C73.84,129.12,73.22,125.61,76.92,121.88Z" transform="translate(-17.79 -19.4)" style="fill:#fff"/><path d="M170.54,90.41h0L141,75.63A9.44,9.44,0,0,0,130,77.2L75.44,131.71,74,133.13l-5.11,5.11a13.26,13.26,0,0,1-15.5,2.32L62.2,145l29.61,14.82a9.46,9.46,0,0,0,11.08-1.72l60.7-60.69A13.26,13.26,0,0,1,179,94.66Z" transform="translate(-17.79 -19.4)" style="fill:#fff"/><path d="M113.46,26.41l-11.8-5.92a9.32,9.32,0,0,0-4.35-1.09A9.18,9.18,0,0,0,90.88,22l-61,61a13.61,13.61,0,0,1-4.71,3,13.35,13.35,0,0,1-4.77.89A13.71,13.71,0,0,1,19,86.9H18.8c-.33,0-.66-.09-1-.16l5.28,2.64.33.17.17.09.4.2L45.6,100.65l2,1,5,2.49.06,0a9.22,9.22,0,0,0,10.79-1.68L107.18,58.8l17-17a13.43,13.43,0,0,1,5.48-3.46c.37-.12.77-.23,1.21-.34l.27-.05.12,0,.84-.15.43,0,.84-.06h.9c.38,0,.69,0,1,.06l.54.06.69.12-5.3-2.65Z" transform="translate(-17.79 -19.4)" style="fill:#fff"/></svg>