<svg width="24" height="24" viewBox="0 0 24 24" fill="none" xmlns="http://www.w3.org/2000/svg">
<path fill-rule="evenodd" clip-rule="evenodd" d="M18.3 10.1818H17.4V7.45455C17.4 4.44545 14.979 2 12 2C9.021 2 6.6 4.44545 6.6 7.45455V10.1818H5.7C4.206 10.1818 3 11.4 3 12.9091V19.2727C3 20.7818 4.206 22 5.7 22H18.3C19.794 22 21 20.7818 21 19.2727V12.9091C21 11.4 19.794 10.1818 18.3 10.1818ZM8.4 7.45455C8.4 5.44545 10.011 3.81818 12 3.81818C13.989 3.81818 15.6 5.44545 15.6 7.45455V10.1818H8.4V7.45455ZM19.2 19.2727C19.2 19.7727 18.795 20.1818 18.3 20.1818H5.7C5.205 20.1818 4.8 19.7727 4.8 19.2727V12.9091C4.8 12.4091 5.205 12 5.7 12H18.3C18.795 12 19.2 12.4091 19.2 12.9091V19.2727Z" fill="#0156A2"/>
<path d="M8.4 16.5455C8.89706 16.5455 9.3 16.1385 9.3 15.6364C9.3 15.1343 8.89706 14.7273 8.4 14.7273C7.90294 14.7273 7.5 15.1343 7.5 15.6364C7.5 16.1385 7.90294 16.5455 8.4 16.5455Z" fill="#0156A2"/>
<path d="M11.9996 16.5455C12.4967 16.5455 12.8996 16.1385 12.8996 15.6364C12.8996 15.1343 12.4967 14.7273 11.9996 14.7273C11.5026 14.7273 11.0996 15.1343 11.0996 15.6364C11.0996 16.1385 11.5026 16.5455 11.9996 16.5455Z" fill="#0156A2"/>
<path d="M15.6002 16.5455C16.0973 16.5455 16.5002 16.1385 16.5002 15.6364C16.5002 15.1343 16.0973 14.7273 15.6002 14.7273C15.1031 14.7273 14.7002 15.1343 14.7002 15.6364C14.7002 16.1385 15.1031 16.5455 15.6002 16.5455Z" fill="#0156A2"/>
</svg>
