<?xml version="1.0" encoding="utf-8"?>
<!-- Generator: Adobe Illustrator 25.4.1, SVG Export Plug-In . SVG Version: 6.00 Build 0)  -->
<svg version="1.1" id="圖層_1" xmlns="http://www.w3.org/2000/svg" xmlns:xlink="http://www.w3.org/1999/xlink" x="0px" y="0px"
	 viewBox="0 0 24 24" style="enable-background:new 0 0 24 24;" xml:space="preserve">
<style type="text/css">
	.st0{fill:none;stroke:#0156A2;stroke-width:2;stroke-linecap:round;stroke-linejoin:round;}
</style>
<path class="st0" d="M13.7,3.5H6.9C6.4,3.5,6,3.6,5.6,4C5.3,4.4,5.1,4.8,5.1,5.2v13.7c0,0.5,0.2,0.9,0.5,1.2
	c0.3,0.3,0.8,0.5,1.2,0.5h10.3c0.5,0,0.9-0.2,1.2-0.5c0.3-0.3,0.5-0.8,0.5-1.2V8.7L13.7,3.5z"/>
<path class="st0" d="M13.7,3.5v5.1h5.1"/>
<path class="st0" d="M15.4,12.9H8.6"/>
<path class="st0" d="M15.4,16.3H8.6"/>
<path class="st0" d="M10.3,9.4H9.4H8.6"/>
</svg>
