<svg width="30" height="30" viewBox="0 0 30 30" fill="none" xmlns="http://www.w3.org/2000/svg">
<path d="M20.7495 17.478L25.3717 13.4843C26.0256 12.9171 25.6874 11.8064 24.8306 11.7592L18.8781 11.3811C18.5174 11.3574 18.2017 11.1211 18.0664 10.7667L15.8793 4.90609C15.5637 4.07899 14.4589 4.07899 14.1432 4.90609L11.9561 10.743C11.8208 11.0975 11.5052 11.3338 11.1444 11.3574L5.16939 11.7355C4.3126 11.7828 3.97439 12.8935 4.62826 13.4606L9.25044 17.4307C9.52101 17.667 9.65629 18.0687 9.5661 18.4232L8.05544 24.4965C7.85251 25.3472 8.73186 26.0325 9.45337 25.5599L14.4814 22.1806C14.7971 21.9679 15.1804 21.9679 15.4735 22.1806L20.5241 25.5599C21.2456 26.0325 22.1249 25.3472 21.922 24.4965L20.4113 18.4468C20.3437 18.0924 20.4564 17.7143 20.7495 17.478Z" stroke="#8495A4" stroke-width="2"/>
</svg>
